<svg xmlns="http://www.w3.org/2000/svg" xmlns:xlink="http://www.w3.org/1999/xlink" width="892" zoomAndPan="magnify" viewBox="0 0 669 583.499988" height="778" preserveAspectRatio="xMidYMid meet" version="1.0"><defs><g/></defs><g fill="#000000" fill-opacity="1"><g transform="translate(243.35849, 300.212803)"><g><path d="M 5.4375 0 L 2.15625 0 L 2.15625 -16.59375 L 5.4375 -16.59375 Z M 5.4375 0 "/></g></g><g transform="translate(250.95834, 300.212803)"><g><path d="M 5.328125 0 L 2.15625 0 L 2.15625 -16.59375 L 5.90625 -16.59375 L 12.5625 -5.90625 L 12.859375 -5.9375 L 12.859375 -16.59375 L 16.015625 -16.59375 L 16.015625 0 L 12.65625 0 L 5.609375 -11.40625 L 5.328125 -11.375 Z M 5.328125 0 "/></g></g><g transform="translate(269.141265, 300.212803)"><g><path d="M 13.296875 -16.59375 L 13.296875 -13.828125 L 8.515625 -13.828125 L 8.515625 0 L 5.234375 0 L 5.234375 -13.828125 L 0.453125 -13.828125 L 0.453125 -16.59375 Z M 13.296875 -16.59375 "/></g></g><g transform="translate(282.889054, 300.212803)"><g><path d="M 2.15625 0 L 2.15625 -16.59375 L 8.8125 -16.59375 C 10.53125 -16.59375 11.828125 -16.195312 12.703125 -15.40625 C 13.578125 -14.613281 14.015625 -13.519531 14.015625 -12.125 C 14.015625 -11.125 13.757812 -10.300781 13.25 -9.65625 C 12.738281 -9.007812 11.972656 -8.515625 10.953125 -8.171875 L 10.953125 -7.9375 C 11.472656 -7.707031 11.894531 -7.367188 12.21875 -6.921875 C 12.539062 -6.484375 12.847656 -5.828125 13.140625 -4.953125 L 14.796875 0 L 11.421875 0 L 9.796875 -4.953125 C 9.628906 -5.453125 9.441406 -5.835938 9.234375 -6.109375 C 9.023438 -6.390625 8.757812 -6.59375 8.4375 -6.71875 C 8.125 -6.84375 7.707031 -6.90625 7.1875 -6.90625 L 5.4375 -6.90625 L 5.4375 0 Z M 8.421875 -9.5 C 10.003906 -9.5 10.796875 -10.242188 10.796875 -11.734375 C 10.796875 -13.234375 10.003906 -13.984375 8.421875 -13.984375 L 5.4375 -13.984375 L 5.4375 -9.5 Z M 8.421875 -9.5 "/></g></g><g transform="translate(298.395017, 300.212803)"><g><path d="M 9.046875 0.234375 C 7.523438 0.234375 6.179688 -0.0703125 5.015625 -0.6875 C 3.859375 -1.3125 2.945312 -2.257812 2.28125 -3.53125 C 1.625 -4.8125 1.296875 -6.398438 1.296875 -8.296875 C 1.296875 -10.191406 1.625 -11.773438 2.28125 -13.046875 C 2.945312 -14.328125 3.859375 -15.273438 5.015625 -15.890625 C 6.179688 -16.515625 7.523438 -16.828125 9.046875 -16.828125 C 10.566406 -16.828125 11.90625 -16.515625 13.0625 -15.890625 C 14.21875 -15.273438 15.117188 -14.328125 15.765625 -13.046875 C 16.421875 -11.773438 16.75 -10.191406 16.75 -8.296875 C 16.75 -6.398438 16.421875 -4.8125 15.765625 -3.53125 C 15.117188 -2.25 14.21875 -1.300781 13.0625 -0.6875 C 11.90625 -0.0703125 10.566406 0.234375 9.046875 0.234375 Z M 9.046875 -2.609375 C 10.453125 -2.609375 11.523438 -3.0625 12.265625 -3.96875 C 13.003906 -4.875 13.375 -6.316406 13.375 -8.296875 C 13.375 -10.273438 13.003906 -11.71875 12.265625 -12.625 C 11.523438 -13.53125 10.453125 -13.984375 9.046875 -13.984375 C 7.628906 -13.984375 6.546875 -13.53125 5.796875 -12.625 C 5.054688 -11.71875 4.6875 -10.273438 4.6875 -8.296875 C 4.6875 -6.316406 5.054688 -4.875 5.796875 -3.96875 C 6.546875 -3.0625 7.628906 -2.609375 9.046875 -2.609375 Z M 9.046875 -2.609375 "/></g></g><g transform="translate(316.464511, 300.212803)"><g><path d="M 8.125 -16.59375 C 10.8125 -16.59375 12.863281 -15.894531 14.28125 -14.5 C 15.707031 -13.101562 16.421875 -11.035156 16.421875 -8.296875 C 16.421875 -5.554688 15.707031 -3.488281 14.28125 -2.09375 C 12.863281 -0.695312 10.8125 0 8.125 0 L 2.15625 0 L 2.15625 -16.59375 Z M 7.9375 -2.75 C 9.644531 -2.75 10.921875 -3.1875 11.765625 -4.0625 C 12.609375 -4.9375 13.03125 -6.347656 13.03125 -8.296875 C 13.03125 -10.234375 12.609375 -11.640625 11.765625 -12.515625 C 10.921875 -13.390625 9.644531 -13.828125 7.9375 -13.828125 L 5.4375 -13.828125 L 5.4375 -2.75 Z M 7.9375 -2.75 "/></g></g><g transform="translate(334.193714, 300.212803)"><g><path d="M 8.796875 0.234375 C 6.503906 0.234375 4.804688 -0.304688 3.703125 -1.390625 C 2.597656 -2.472656 2.046875 -4.082031 2.046875 -6.21875 L 2.046875 -16.59375 L 5.265625 -16.59375 L 5.265625 -6.234375 C 5.265625 -5.023438 5.554688 -4.117188 6.140625 -3.515625 C 6.722656 -2.910156 7.609375 -2.609375 8.796875 -2.609375 C 11.148438 -2.609375 12.328125 -3.816406 12.328125 -6.234375 L 12.328125 -16.59375 L 15.53125 -16.59375 L 15.53125 -6.21875 C 15.53125 -4.082031 14.976562 -2.472656 13.875 -1.390625 C 12.769531 -0.304688 11.078125 0.234375 8.796875 0.234375 Z M 8.796875 0.234375 "/></g></g><g transform="translate(351.775457, 300.212803)"><g><path d="M 9.0625 0.234375 C 7.53125 0.234375 6.179688 -0.0820312 5.015625 -0.71875 C 3.859375 -1.351562 2.945312 -2.304688 2.28125 -3.578125 C 1.625 -4.847656 1.296875 -6.421875 1.296875 -8.296875 C 1.296875 -10.160156 1.625 -11.726562 2.28125 -13 C 2.945312 -14.28125 3.859375 -15.238281 5.015625 -15.875 C 6.179688 -16.507812 7.53125 -16.828125 9.0625 -16.828125 C 10.65625 -16.828125 12.007812 -16.515625 13.125 -15.890625 C 14.25 -15.265625 15.046875 -14.3125 15.515625 -13.03125 L 13.125 -11.578125 L 12.84375 -11.578125 C 12.488281 -12.441406 12.003906 -13.0625 11.390625 -13.4375 C 10.785156 -13.8125 10.007812 -14 9.0625 -14 C 7.6875 -14 6.613281 -13.539062 5.84375 -12.625 C 5.070312 -11.71875 4.6875 -10.273438 4.6875 -8.296875 C 4.6875 -6.316406 5.070312 -4.867188 5.84375 -3.953125 C 6.613281 -3.046875 7.6875 -2.59375 9.0625 -2.59375 C 11.21875 -2.59375 12.539062 -3.640625 13.03125 -5.734375 L 13.3125 -5.734375 L 15.71875 -4.484375 C 15.269531 -2.910156 14.492188 -1.726562 13.390625 -0.9375 C 12.296875 -0.15625 10.851562 0.234375 9.0625 0.234375 Z M 9.0625 0.234375 "/></g></g><g transform="translate(368.041405, 300.212803)"><g><path d="M 13.296875 -16.59375 L 13.296875 -13.828125 L 8.515625 -13.828125 L 8.515625 0 L 5.234375 0 L 5.234375 -13.828125 L 0.453125 -13.828125 L 0.453125 -16.59375 Z M 13.296875 -16.59375 "/></g></g><g transform="translate(381.789193, 300.212803)"><g><path d="M 5.4375 0 L 2.15625 0 L 2.15625 -16.59375 L 5.4375 -16.59375 Z M 5.4375 0 "/></g></g><g transform="translate(389.389043, 300.212803)"><g><path d="M 9.046875 0.234375 C 7.523438 0.234375 6.179688 -0.0703125 5.015625 -0.6875 C 3.859375 -1.3125 2.945312 -2.257812 2.28125 -3.53125 C 1.625 -4.8125 1.296875 -6.398438 1.296875 -8.296875 C 1.296875 -10.191406 1.625 -11.773438 2.28125 -13.046875 C 2.945312 -14.328125 3.859375 -15.273438 5.015625 -15.890625 C 6.179688 -16.515625 7.523438 -16.828125 9.046875 -16.828125 C 10.566406 -16.828125 11.90625 -16.515625 13.0625 -15.890625 C 14.21875 -15.273438 15.117188 -14.328125 15.765625 -13.046875 C 16.421875 -11.773438 16.75 -10.191406 16.75 -8.296875 C 16.75 -6.398438 16.421875 -4.8125 15.765625 -3.53125 C 15.117188 -2.25 14.21875 -1.300781 13.0625 -0.6875 C 11.90625 -0.0703125 10.566406 0.234375 9.046875 0.234375 Z M 9.046875 -2.609375 C 10.453125 -2.609375 11.523438 -3.0625 12.265625 -3.96875 C 13.003906 -4.875 13.375 -6.316406 13.375 -8.296875 C 13.375 -10.273438 13.003906 -11.71875 12.265625 -12.625 C 11.523438 -13.53125 10.453125 -13.984375 9.046875 -13.984375 C 7.628906 -13.984375 6.546875 -13.53125 5.796875 -12.625 C 5.054688 -11.71875 4.6875 -10.273438 4.6875 -8.296875 C 4.6875 -6.316406 5.054688 -4.875 5.796875 -3.96875 C 6.546875 -3.0625 7.628906 -2.609375 9.046875 -2.609375 Z M 9.046875 -2.609375 "/></g></g><g transform="translate(407.458538, 300.212803)"><g><path d="M 5.328125 0 L 2.15625 0 L 2.15625 -16.59375 L 5.90625 -16.59375 L 12.5625 -5.90625 L 12.859375 -5.9375 L 12.859375 -16.59375 L 16.015625 -16.59375 L 16.015625 0 L 12.65625 0 L 5.609375 -11.40625 L 5.328125 -11.375 Z M 5.328125 0 "/></g></g></g></svg>